# xmcd
#
# Track frame offsets: 
#        150
#        14905
#        33078
#        52665
#        68132
#        85915
#        105393
#        123981
#        143322
#        167175
#        186223
#        200687
#
# Disc length: 2867 seconds
#
# Revision: 4
# Processed by: cddbd v1.4PL0 Copyright (c) Steve Scherf et al.
# Submitted via: ExactAudioCopy v0.90b4
#
DISCID=990b310c
DTITLE=Beverley Mahood - Girl Out Of The Ordinary
DYEAR=1998
DGENRE=Country
TTITLE0=Radio 101
TTITLE1=Girl Out Of The Ordinary
TTITLE2=True Love (Never Goes Out Of Style)
TTITLE3=A Little Thing Called Love
TTITLE4=The Way A Woman Feels
TTITLE5=I Believe In You
TTITLE6=I Don't Do
TTITLE7=Kiss And Make Up
TTITLE8=Moving Day
TTITLE9=Little Miss Innocent
TTITLE10=I Love How You Listen To Me
TTITLE11=All Through The Night
EXTD=YEAR: 1998
EXTT0=
EXTT1=
EXTT2=
EXTT3=
EXTT4=
EXTT5=
EXTT6=
EXTT7=
EXTT8=
EXTT9=
EXTT10=
EXTT11=
PLAYORDER=
